<?xml version="1.0" encoding="UTF-8" standalone="no"?>
<!DOCTYPE svg PUBLIC "-//W3C//DTD SVG 1.1//EN"
 "http://www.w3.org/Graphics/SVG/1.1/DTD/svg11.dtd">
<!-- Generated by graphviz version 2.43.0 (0)
 -->
<!-- Title: %3 Pages: 1 -->
<svg width="831pt" height="577pt"
 viewBox="0.00 0.00 831.00 577.18" xmlns="http://www.w3.org/2000/svg" xmlns:xlink="http://www.w3.org/1999/xlink">
<g id="graph0" class="graph" transform="scale(1 1) rotate(0) translate(36 541.18)">
<title>%3</title>
<polygon fill="white" stroke="transparent" points="-36,36 -36,-541.18 795,-541.18 795,36 -36,36"/>
<!-- uvdesk -->
<g id="node1" class="node">
<title>uvdesk</title>
<polygon fill="none" stroke="black" points="759,-264.54 575,-264.54 575,-260.54 571,-260.54 571,-256.54 575,-256.54 575,-234.54 571,-234.54 571,-230.54 575,-230.54 575,-226.54 759,-226.54 759,-264.54"/>
<polyline fill="none" stroke="black" points="575,-260.54 579,-260.54 579,-256.54 575,-256.54 "/>
<polyline fill="none" stroke="black" points="575,-234.54 579,-234.54 579,-230.54 575,-230.54 "/>
<text text-anchor="middle" x="667" y="-249.34" font-family="Times,serif" font-size="14.00">uvdesk</text>
<text text-anchor="middle" x="667" y="-234.34" font-family="Times,serif" font-size="14.00">(dietermartens/uvdesk)</text>
</g>
<!-- public -->
<g id="node2" class="node">
<title>public</title>
<polygon fill="none" stroke="black" points="609.89,-23.56 539,-36 468.11,-23.56 495.18,-3.44 582.82,-3.44 609.89,-23.56"/>
<text text-anchor="middle" x="539" y="-14.3" font-family="Times,serif" font-size="14.00">net:public</text>
</g>
<!-- uvdesk&#45;&gt;public -->
<g id="edge1" class="edge">
<title>uvdesk&#45;&gt;public</title>
<path fill="none" stroke="black" d="M682.26,-226.48C697.76,-205.82 717.67,-171.19 704,-143 678.38,-90.17 617.96,-54.16 577.78,-35.09"/>
<polygon fill="black" stroke="black" points="579.08,-31.84 568.54,-30.83 576.15,-38.2 579.08,-31.84"/>
</g>
<!-- app -->
<g id="node3" class="node">
<title>app</title>
<path fill="none" stroke="black" d="M624,-120.73C624,-122.53 611.9,-124 597,-124 582.1,-124 570,-122.53 570,-120.73 570,-120.73 570,-91.27 570,-91.27 570,-89.47 582.1,-88 597,-88 611.9,-88 624,-89.47 624,-91.27 624,-91.27 624,-120.73 624,-120.73"/>
<path fill="none" stroke="black" d="M624,-120.73C624,-118.92 611.9,-117.45 597,-117.45 582.1,-117.45 570,-118.92 570,-120.73"/>
<text text-anchor="middle" x="597" y="-102.3" font-family="Times,serif" font-size="14.00">app</text>
</g>
<!-- uvdesk&#45;&gt;app -->
<g id="edge2" class="edge">
<title>uvdesk&#45;&gt;app</title>
<path fill="none" stroke="black" stroke-dasharray="5,2" d="M639.08,-218.96C623.84,-203.08 606.41,-181.3 598,-158 595.31,-150.56 594.38,-142.09 594.3,-134.23"/>
<polygon fill="black" stroke="black" points="636.81,-221.64 646.34,-226.26 641.77,-216.7 636.81,-221.64"/>
<polygon fill="black" stroke="black" points="597.81,-134.14 594.65,-124.03 590.81,-133.91 597.81,-134.14"/>
<text text-anchor="middle" x="651" y="-146.8" font-family="Times,serif" font-size="14.00">/var/www/html</text>
</g>
<!-- mysql -->
<g id="node5" class="node">
<title>mysql</title>
<polygon fill="none" stroke="black" points="461.5,-125 346.5,-125 346.5,-121 342.5,-121 342.5,-117 346.5,-117 346.5,-95 342.5,-95 342.5,-91 346.5,-91 346.5,-87 461.5,-87 461.5,-125"/>
<polyline fill="none" stroke="black" points="346.5,-121 350.5,-121 350.5,-117 346.5,-117 "/>
<polyline fill="none" stroke="black" points="346.5,-95 350.5,-95 350.5,-91 346.5,-91 "/>
<text text-anchor="middle" x="404" y="-109.8" font-family="Times,serif" font-size="14.00">mysql</text>
<text text-anchor="middle" x="404" y="-94.8" font-family="Times,serif" font-size="14.00">(mysql:latest)</text>
</g>
<!-- uvdesk&#45;&gt;mysql -->
<g id="edge4" class="edge">
<title>uvdesk&#45;&gt;mysql</title>
<path fill="none" stroke="black" stroke-dasharray="1,5" d="M642.67,-226.3C622.49,-211.64 592.74,-191.09 565,-176 531.96,-158.02 493.25,-141.31 462.08,-128.83"/>
<polygon fill="black" stroke="black" points="463.24,-125.53 452.66,-125.1 460.67,-132.04 463.24,-125.53"/>
</g>
<!-- 0.0.0.08080 -->
<g id="node4" class="node">
<title>0.0.0.08080</title>
<ellipse fill="none" stroke="black" cx="668" cy="-435.63" rx="69.59" ry="69.59"/>
<text text-anchor="middle" x="668" y="-431.93" font-family="Times,serif" font-size="14.00">0.0.0.0:8080</text>
</g>
<!-- 0.0.0.08080&#45;&gt;uvdesk -->
<g id="edge3" class="edge">
<title>0.0.0.08080&#45;&gt;uvdesk</title>
<path fill="none" stroke="black" d="M667.63,-365.93C667.47,-334.44 667.28,-298.86 667.15,-274.79"/>
<polygon fill="black" stroke="black" points="670.65,-274.59 667.1,-264.6 663.65,-274.62 670.65,-274.59"/>
<text text-anchor="middle" x="676.5" y="-336.89" font-family="Times,serif" font-size="14.00">80</text>
</g>
<!-- mysql&#45;&gt;public -->
<g id="edge5" class="edge">
<title>mysql&#45;&gt;public</title>
<path fill="none" stroke="black" d="M461.71,-89.21C475.02,-84.02 488.6,-77.38 500,-69 509.41,-62.09 517.72,-52.31 524.23,-43.24"/>
<polygon fill="black" stroke="black" points="527.18,-45.12 529.89,-34.87 521.38,-41.2 527.18,-45.12"/>
</g>
<!-- mysql_data -->
<g id="node6" class="node">
<title>mysql_data</title>
<path fill="none" stroke="black" d="M98,-32.73C98,-34.53 76.04,-36 49,-36 21.96,-36 0,-34.53 0,-32.73 0,-32.73 0,-3.27 0,-3.27 0,-1.47 21.96,0 49,0 76.04,0 98,-1.47 98,-3.27 98,-3.27 98,-32.73 98,-32.73"/>
<path fill="none" stroke="black" d="M98,-32.73C98,-30.92 76.04,-29.45 49,-29.45 21.96,-29.45 0,-30.92 0,-32.73"/>
<text text-anchor="middle" x="49" y="-14.3" font-family="Times,serif" font-size="14.00">mysql_data</text>
</g>
<!-- mysql&#45;&gt;mysql_data -->
<g id="edge6" class="edge">
<title>mysql&#45;&gt;mysql_data</title>
<path fill="none" stroke="black" stroke-dasharray="5,2" d="M336.38,-103.72C255.63,-101.11 126.28,-93.16 85,-69 75.45,-63.41 67.73,-54.16 61.93,-45.14"/>
<polygon fill="black" stroke="black" points="336.36,-107.22 346.47,-104.03 336.58,-100.23 336.36,-107.22"/>
<polygon fill="black" stroke="black" points="64.85,-43.19 56.78,-36.32 58.81,-46.72 64.85,-43.19"/>
<text text-anchor="middle" x="134" y="-57.8" font-family="Times,serif" font-size="14.00">/var/lib/mysql</text>
</g>
<!-- ./create_db_user.sql -->
<g id="node7" class="node">
<title>./create_db_user.sql</title>
<path fill="none" stroke="black" d="M274,-32.73C274,-34.53 238.59,-36 195,-36 151.41,-36 116,-34.53 116,-32.73 116,-32.73 116,-3.27 116,-3.27 116,-1.47 151.41,0 195,0 238.59,0 274,-1.47 274,-3.27 274,-3.27 274,-32.73 274,-32.73"/>
<path fill="none" stroke="black" d="M274,-32.73C274,-30.92 238.59,-29.45 195,-29.45 151.41,-29.45 116,-30.92 116,-32.73"/>
<text text-anchor="middle" x="195" y="-14.3" font-family="Times,serif" font-size="14.00">./create_db_user.sql</text>
</g>
<!-- mysql&#45;&gt;./create_db_user.sql -->
<g id="edge7" class="edge">
<title>mysql&#45;&gt;./create_db_user.sql</title>
<path fill="none" stroke="black" stroke-dasharray="5,2" d="M336.31,-102.72C281.43,-99.28 210.28,-90.65 192,-69 186.71,-62.74 185.72,-54.32 186.59,-46.17"/>
<polygon fill="black" stroke="black" points="336.17,-106.22 346.35,-103.31 336.57,-99.23 336.17,-106.22"/>
<polygon fill="black" stroke="black" points="190.06,-46.65 188.48,-36.18 183.18,-45.35 190.06,-46.65"/>
<text text-anchor="middle" x="344" y="-57.8" font-family="Times,serif" font-size="14.00">/docker&#45;entrypoint&#45;initdb.d/create_user.sql</text>
</g>
<!-- 0.0.0.03306 -->
<g id="node8" class="node">
<title>0.0.0.03306</title>
<ellipse fill="none" stroke="black" cx="382" cy="-245.54" rx="69.59" ry="69.59"/>
<text text-anchor="middle" x="382" y="-241.84" font-family="Times,serif" font-size="14.00">0.0.0.0:3306</text>
</g>
<!-- 0.0.0.03306&#45;&gt;mysql -->
<g id="edge8" class="edge">
<title>0.0.0.03306&#45;&gt;mysql</title>
<path fill="none" stroke="black" d="M392.87,-176.58C395.22,-161.92 397.57,-147.21 399.5,-135.12"/>
<polygon fill="black" stroke="black" points="402.96,-135.67 401.08,-125.24 396.05,-134.56 402.96,-135.67"/>
<text text-anchor="middle" x="417.5" y="-146.8" font-family="Times,serif" font-size="14.00">3306</text>
</g>
<!-- adminer -->
<g id="node9" class="node">
<title>adminer</title>
<polygon fill="none" stroke="black" points="556,-264.54 470,-264.54 470,-260.54 466,-260.54 466,-256.54 470,-256.54 470,-234.54 466,-234.54 466,-230.54 470,-230.54 470,-226.54 556,-226.54 556,-264.54"/>
<polyline fill="none" stroke="black" points="470,-260.54 474,-260.54 474,-256.54 470,-256.54 "/>
<polyline fill="none" stroke="black" points="470,-234.54 474,-234.54 474,-230.54 470,-230.54 "/>
<text text-anchor="middle" x="513" y="-249.34" font-family="Times,serif" font-size="14.00">adminer</text>
<text text-anchor="middle" x="513" y="-234.34" font-family="Times,serif" font-size="14.00">(adminer)</text>
</g>
<!-- adminer&#45;&gt;public -->
<g id="edge9" class="edge">
<title>adminer&#45;&gt;public</title>
<path fill="none" stroke="black" d="M515.08,-226.47C519.64,-186.9 530.53,-92.45 535.9,-45.88"/>
<polygon fill="black" stroke="black" points="539.38,-46.26 537.05,-35.92 532.43,-45.46 539.38,-46.26"/>
</g>
<!-- adminer&#45;&gt;mysql -->
<g id="edge11" class="edge">
<title>adminer&#45;&gt;mysql</title>
<path fill="none" stroke="black" stroke-dasharray="1,5" d="M501.18,-226.28C487.39,-205.42 463.48,-170.63 440,-143 437.02,-139.5 433.77,-135.93 430.47,-132.47"/>
<polygon fill="black" stroke="black" points="432.78,-129.83 423.28,-125.13 427.78,-134.73 432.78,-129.83"/>
</g>
<!-- 0.0.0.08081 -->
<g id="node10" class="node">
<title>0.0.0.08081</title>
<ellipse fill="none" stroke="black" cx="511" cy="-435.63" rx="69.59" ry="69.59"/>
<text text-anchor="middle" x="511" y="-431.93" font-family="Times,serif" font-size="14.00">0.0.0.0:8081</text>
</g>
<!-- 0.0.0.08081&#45;&gt;adminer -->
<g id="edge10" class="edge">
<title>0.0.0.08081&#45;&gt;adminer</title>
<path fill="none" stroke="black" d="M511.73,-365.93C512.07,-334.44 512.44,-298.86 512.7,-274.79"/>
<polygon fill="black" stroke="black" points="516.2,-274.64 512.81,-264.6 509.2,-274.57 516.2,-274.64"/>
<text text-anchor="middle" x="531.5" y="-336.89" font-family="Times,serif" font-size="14.00">8080</text>
</g>
</g>
</svg>
